<?xml version="1.0" standalone="no"?>
<!DOCTYPE svg PUBLIC "-//W3C//DTD SVG 20010904//EN"
 "http://www.w3.org/TR/2001/REC-SVG-20010904/DTD/svg10.dtd">
<svg version="1.0" xmlns="http://www.w3.org/2000/svg"
 width="320.000000pt" height="320.000000pt" viewBox="0 0 320.000000 320.000000"
 preserveAspectRatio="xMidYMid meet">
<metadata>
Created by potrace 1.14, written by Peter Selinger 2001-2017
</metadata>
<g transform="translate(0.000000,320.000000) scale(0.100000,-0.100000)"
fill="#000000" stroke="none">
<path d="M1450 3069 c-75 -9 -143 -20 -151 -24 -3 -2 -19 -7 -35 -9 -67 -13
-97 -22 -197 -60 -128 -49 -287 -139 -369 -208 -15 -13 -36 -30 -48 -39 -38
-29 -137 -128 -172 -170 -18 -23 -45 -55 -60 -72 -15 -18 -28 -37 -28 -44 0
-7 -8 -16 -17 -22 -10 -5 -18 -13 -17 -18 1 -4 -10 -26 -24 -48 -60 -94 -148
-309 -166 -405 -3 -14 -12 -61 -21 -105 -29 -140 -24 -396 10 -545 9 -36 18
-76 21 -89 10 -46 47 -147 80 -219 19 -41 34 -78 34 -83 0 -5 3 -9 8 -9 4 0
18 -23 32 -51 13 -27 32 -57 42 -66 10 -9 18 -22 18 -29 0 -7 3 -14 8 -16 4
-2 26 -28 49 -58 99 -131 294 -293 453 -378 77 -41 216 -101 247 -107 10 -2
19 -4 21 -5 1 -2 5 -3 10 -4 4 -1 48 -12 97 -24 110 -26 192 -35 310 -36 90 0
218 9 265 19 14 3 36 7 50 10 14 2 50 12 80 20 30 8 65 18 77 20 12 3 51 18
87 35 36 16 66 27 66 25 0 -3 125 63 156 83 122 79 253 182 254 200 0 6 4 12
9 12 16 0 96 90 189 215 101 136 209 401 237 585 19 124 22 161 19 283 -4 229
-60 450 -162 642 -14 28 -31 60 -37 72 -5 13 -13 23 -17 23 -5 0 -8 7 -8 15 0
8 -4 15 -10 15 -5 0 -10 6 -10 13 0 13 -17 35 -103 139 -78 92 -152 164 -217
209 -19 13 -39 29 -45 35 -18 19 -142 93 -223 132 -72 35 -174 77 -179 74 -2
-1 -22 6 -45 14 -24 9 -54 17 -68 19 -14 2 -47 9 -74 15 -103 23 -311 32 -426
19z"/>
</g>
</svg>
